<svg width="278" height="249" viewBox="0 0 278 249" fill="none" xmlns="http://www.w3.org/2000/svg">
<rect width="278" height="249" rx="8" fill="#CCCCCC"/>
<path d="M187 84.4167H91V164.333L146.752 111.28C147.309 110.749 147.971 110.328 148.699 110.041C149.428 109.754 150.209 109.606 150.997 109.606C151.785 109.606 152.566 109.754 153.295 110.041C154.023 110.328 154.685 110.749 155.242 111.28L187 141.557V84.4167ZM79 78.6684C79.011 77.1692 79.6414 75.7344 80.7551 74.6738C81.8688 73.6132 83.3763 73.012 84.952 73H193.048C196.336 73 199 75.5402 199 78.6684V170.082C198.989 171.581 198.359 173.016 197.245 174.076C196.131 175.137 194.624 175.738 193.048 175.75H84.952C83.3729 175.748 81.859 175.151 80.7429 174.088C79.6269 173.025 79 171.584 79 170.082V78.6684ZM115 118.667C111.817 118.667 108.765 117.464 106.515 115.323C104.264 113.182 103 110.278 103 107.25C103 104.222 104.264 101.318 106.515 99.1772C108.765 97.0362 111.817 95.8333 115 95.8333C118.183 95.8333 121.235 97.0362 123.485 99.1772C125.736 101.318 127 104.222 127 107.25C127 110.278 125.736 113.182 123.485 115.323C121.235 117.464 118.183 118.667 115 118.667Z" fill="#2D2D2D"/>
</svg>
