<svg width="35" height="31" viewBox="0 0 35 31" fill="none" xmlns="http://www.w3.org/2000/svg">
<rect width="35" height="31" rx="4" fill="white"/>
<path d="M10.8133 7C9.81186 7 9 7.83031 9 8.85455C9 9.87878 9.81186 10.7091 10.8133 10.7091C11.8148 10.7091 12.6267 9.87878 12.6267 8.85455C12.6267 7.83031 11.8148 7 10.8133 7Z" fill="#000406"/>
<path d="M9.10667 12.2364C9.04776 12.2364 9 12.2852 9 12.3455V23.6909C9 23.7512 9.04776 23.8 9.10667 23.8H12.52C12.5789 23.8 12.6267 23.7512 12.6267 23.6909V12.3455C12.6267 12.2852 12.5789 12.2364 12.52 12.2364H9.10667Z" fill="#000406"/>
<path d="M14.6533 12.2364C14.5944 12.2364 14.5467 12.2852 14.5467 12.3455V23.6909C14.5467 23.7512 14.5944 23.8 14.6533 23.8H18.0667C18.1256 23.8 18.1733 23.7512 18.1733 23.6909V17.5818C18.1733 17.1478 18.3419 16.7316 18.642 16.4247C18.942 16.1179 19.349 15.9455 19.7733 15.9455C20.1977 15.9455 20.6046 16.1179 20.9047 16.4247C21.2048 16.7316 21.3733 17.1478 21.3733 17.5818V23.6909C21.3733 23.7512 21.4211 23.8 21.48 23.8H24.8933C24.9522 23.8 25 23.7512 25 23.6909V16.1682C25 14.0503 23.1989 12.3934 21.1385 12.585C20.5031 12.6441 19.8748 12.8057 19.2882 13.0628L18.1733 13.5514V12.3455C18.1733 12.2852 18.1256 12.2364 18.0667 12.2364H14.6533Z" fill="#000406"/>
</svg>
