<svg width="29" height="26" viewBox="0 0 29 26" fill="none" xmlns="http://www.w3.org/2000/svg">
<rect x="0.262939" y="0.283447" width="28.7368" height="25.0876" rx="4" fill="#0E76A8"/>
<path d="M11.1779 5.94824C10.44 5.94824 9.8418 6.62019 9.8418 7.44909C9.8418 8.27798 10.44 8.94993 11.1779 8.94993C11.9159 8.94993 12.5141 8.27798 12.5141 7.44909C12.5141 6.62019 11.9159 5.94824 11.1779 5.94824Z" fill="white"/>
<path d="M9.92039 10.1859C9.87699 10.1859 9.8418 10.2254 9.8418 10.2742V19.4558C9.8418 19.5046 9.87699 19.5441 9.92039 19.5441H12.4355C12.4789 19.5441 12.5141 19.5046 12.5141 19.4558V10.2742C12.5141 10.2254 12.4789 10.1859 12.4355 10.1859H9.92039Z" fill="white"/>
<path d="M14.0074 10.1859C13.964 10.1859 13.9288 10.2254 13.9288 10.2742V19.4558C13.9288 19.5046 13.964 19.5441 14.0074 19.5441H16.5225C16.5659 19.5441 16.6011 19.5046 16.6011 19.4558V14.5119C16.6011 14.1607 16.7253 13.8238 16.9464 13.5755C17.1675 13.3271 17.4674 13.1876 17.78 13.1876C18.0927 13.1876 18.3926 13.3271 18.6137 13.5755C18.8348 13.8238 18.959 14.1607 18.959 14.5119V19.4558C18.959 19.5046 18.9942 19.5441 19.0376 19.5441H21.5527C21.5961 19.5441 21.6313 19.5046 21.6313 19.4558V13.3679C21.6313 11.6539 20.3042 10.313 18.786 10.4681C18.3178 10.5159 17.8548 10.6466 17.4226 10.8547L16.6011 11.2502V10.2742C16.6011 10.2254 16.5659 10.1859 16.5225 10.1859H14.0074Z" fill="white"/>
</svg>
